<?xml version="1.0" encoding="UTF-8"?>
<svg id="Layer_1" xmlns="http://www.w3.org/2000/svg" version="1.1" xmlns:xlink="http://www.w3.org/1999/xlink" viewBox="0 0 160 160">
  <!-- Generator: Adobe Illustrator 30.0.0, SVG Export Plug-In . SVG Version: 2.1.1 Build 123)  -->
  <defs>
    <style>
      .st0 {
        fill: url(#linear-gradient);
        stroke: url(#linear-gradient1);
        stroke-miterlimit: 10;
        stroke-width: .1px;
      }

      .st1 {
        fill: #0f172a;
      }
    </style>
    <linearGradient id="linear-gradient" x1="54.72" y1="56" x2="105.28" y2="56" gradientUnits="userSpaceOnUse">
      <stop offset="0" stop-color="#7da7d9"/>
      <stop offset=".07" stop-color="#35517d"/>
      <stop offset=".5" stop-color="#dee6f5"/>
      <stop offset=".62" stop-color="#bacdea"/>
      <stop offset=".67" stop-color="#b6cae8"/>
      <stop offset=".71" stop-color="#aac3e5"/>
      <stop offset=".76" stop-color="#96b6df"/>
      <stop offset=".81" stop-color="#7aa5d8"/>
      <stop offset=".81" stop-color="#7aa5d8"/>
      <stop offset="1" stop-color="#174d6b"/>
    </linearGradient>
    <linearGradient id="linear-gradient1" x1="54.29" y1="55.98" x2="105.47" y2="55.98" gradientUnits="userSpaceOnUse">
      <stop offset="0" stop-color="#7da7d9"/>
      <stop offset=".07" stop-color="#35517d"/>
      <stop offset=".5" stop-color="#dee6f5"/>
      <stop offset=".62" stop-color="#bacdea"/>
      <stop offset=".67" stop-color="#b6cae8"/>
      <stop offset=".71" stop-color="#aac3e5"/>
      <stop offset=".76" stop-color="#96b6df"/>
      <stop offset=".81" stop-color="#7aa5d8"/>
      <stop offset=".81" stop-color="#7aa5d8"/>
      <stop offset="1" stop-color="#174d6b"/>
    </linearGradient>
  </defs>
  <path class="st0" d="M83.9,70.31c3.93-.44,8.96-2.66,12.28-4.83,1.45.07-1.56,1.61-1.67,1.67-4.75,2.66-8.63,3.48-13.95,4.27-.92.14-1.96-.11-2.93.04-5,.77-9.66,4.53-14.56,5.9-.97.02-.88-.05-.08-.45,1.71-.86,3.46-1.78,4.74-3.25l-13.01,1.11,16.12-5.25c1.31-.66,2.63-1.28,3.86-2.09,1.7-1.13,3.08-3.03,4.94-3.43l-.74-.93,1.11-.56-4.09-1.86,2.23-1.11c-2,.06-3.6-1.43-5.2-2.42l3.71-.55-8.18-2.04-.37-.56c1.05-.04,2.11.04,3.16,0,.45-.02,1.38.28,1.3-.37-2.57-.56-6.23-1.24-8.51-2.46-.87-.46-8.52-7.03-7.85-7.58,7.31,1.53,14.99,3.56,21.82,6.62,2.06.92,5.51,2.55,7.16,3.99,1.88,1.64,2.74,4.74,5.6,4.99l-3.29-3.62c-.1-.32-.06-.61.01-.93.4-1.59,5.16-6.64,6.42-8.49,2.34-3.45,4.37-7.46,5.42-11.5,3.78,3.93,3.7,9.97.89,14.46-.94,1.5-8.3,8.7-7.21,10.07,1.89-.97,3.54-2,5.77-1.89,2.57.13,3.6,2.5,6.5,2.07-.65.48-2.45,1.13-3.17,1.15-.92.03-.71-.9-1.46-.99-3.84-.45-7.46,1.6-11,.22-1.84-.72-3.27-3.4-4.62-4.67-2.61-2.45-7.89-4.29-11.36-5.18,4.67,3.79,4.49,11.84,10.78,13.56-4.54,2.59-8.97,5.61-14.13,6.88.12,1.03,1.8,0,2.04,0,3.52,0,8.17.38,11.53,0Z"/>
  <g>
    <path class="st1" d="M82.06,79.42v1.67h-.12c-.06-.45-.19-.76-.39-.95-.21-.18-.51-.28-.91-.28h-1v5.43c0,.24.02.43.05.57.03.14.08.24.14.31s.14.11.23.13.2.03.33.03h.24v.2h-3.01v-.2h.25c.12,0,.23-.01.33-.03s.17-.07.23-.14.11-.17.14-.31c.03-.14.05-.32.05-.55v-5.43h-.85c-.21,0-.4.02-.57.05-.16.03-.31.1-.43.19-.12.09-.21.22-.29.38-.07.16-.11.36-.13.61h-.2v-1.67h5.88Z"/>
    <path class="st1" d="M83.27,83.53c0,.36.05.68.14.96s.22.52.38.72.34.35.55.45.43.16.67.16c.31,0,.58-.09.82-.26s.43-.47.58-.89l.16.1c-.04.23-.11.46-.22.69s-.25.43-.42.61-.37.32-.59.43-.47.16-.73.16c-.29,0-.56-.06-.81-.18s-.47-.28-.66-.5-.34-.48-.45-.78-.17-.65-.17-1.03c0-.41.06-.78.17-1.1s.27-.6.47-.82.43-.39.7-.51.56-.17.87-.17c.27,0,.51.05.73.14s.42.22.58.39.29.37.39.61.14.51.14.8h-3.31ZM83.27,83.23h2.22c-.03-.44-.13-.77-.32-.97s-.43-.31-.72-.31c-.14,0-.28.03-.41.09s-.26.14-.36.25-.2.24-.27.4-.12.34-.13.54Z"/>
    <path class="st1" d="M89.1,81.58v1.08c.41-.72.82-1.08,1.24-1.08.09,0,.18.02.26.05.08.03.15.07.21.13.06.05.11.12.14.19.03.07.05.14.05.22,0,.14-.04.25-.14.34-.09.09-.2.14-.32.14-.06,0-.12-.02-.2-.05-.08-.04-.15-.08-.22-.12s-.13-.09-.2-.12c-.06-.04-.11-.05-.14-.05-.09,0-.2.08-.33.23s-.25.34-.37.58v2.3c0,.14,0,.27.03.38.02.11.06.21.11.29.06.08.14.14.25.19.11.04.26.07.45.07v.19h-2.46v-.19c.16,0,.28-.01.38-.03.1-.02.17-.06.23-.12.06-.06.1-.15.12-.27.02-.12.03-.27.03-.46v-1.86c0-.28,0-.5-.01-.66s-.02-.27-.03-.33c-.05-.21-.17-.31-.35-.31-.06,0-.11,0-.17.02-.06.01-.12.03-.2.06l-.05-.19,1.45-.59h.22Z"/>
    <path class="st1" d="M93.15,82.6c.56-.68,1.09-1.02,1.6-1.02.18,0,.34.03.49.09.15.06.28.16.39.3.11.14.2.32.26.55s.09.52.09.86v2.05c0,.21.01.37.04.49s.06.21.12.27.13.1.22.11.21.02.36.02v.19h-2.37v-.19h.09c.16,0,.28-.01.37-.04.09-.03.16-.08.2-.14.04-.07.07-.16.09-.28.01-.12.02-.26.02-.43v-1.96c0-.44-.06-.76-.17-.95-.11-.19-.3-.29-.57-.29-.42,0-.84.23-1.24.68v2.52c0,.2,0,.36.02.48.01.12.04.21.1.27.05.06.13.1.23.12.1.02.25.03.43.03v.19h-2.38v-.19h.1c.12,0,.23-.01.31-.04.08-.03.14-.08.19-.14s.08-.16.1-.28c.02-.12.03-.26.03-.43v-1.77c0-.34,0-.61-.02-.8-.01-.19-.03-.32-.06-.41-.03-.09-.07-.14-.12-.15-.05-.02-.11-.02-.18-.02-.05,0-.11,0-.16.02s-.12.03-.19.06l-.08-.19,1.45-.59h.23v1.02Z"/>
  </g>
</svg>