<?xml version="1.0" encoding="UTF-8"?>
<svg id="Layer_1" xmlns="http://www.w3.org/2000/svg" version="1.1" xmlns:xlink="http://www.w3.org/1999/xlink" viewBox="0 0 160 160">
  <!-- Generator: Adobe Illustrator 30.0.0, SVG Export Plug-In . SVG Version: 2.1.1 Build 123)  -->
  <defs>
    <style>
      .st0 {
        fill: url(#linear-gradient);
        stroke: url(#linear-gradient1);
        stroke-miterlimit: 10;
        stroke-width: .1px;
      }
    </style>
    <linearGradient id="linear-gradient" x1="54.72" y1="56" x2="105.28" y2="56" gradientUnits="userSpaceOnUse">
      <stop offset="0" stop-color="#7da7d9"/>
      <stop offset=".07" stop-color="#35517d"/>
      <stop offset=".5" stop-color="#dee6f5"/>
      <stop offset=".62" stop-color="#bacdea"/>
      <stop offset=".67" stop-color="#b6cae8"/>
      <stop offset=".71" stop-color="#aac3e5"/>
      <stop offset=".76" stop-color="#96b6df"/>
      <stop offset=".81" stop-color="#7aa5d8"/>
      <stop offset=".81" stop-color="#7aa5d8"/>
      <stop offset="1" stop-color="#174d6b"/>
    </linearGradient>
    <linearGradient id="linear-gradient1" x1="54.29" y1="55.98" x2="105.47" y2="55.98" gradientUnits="userSpaceOnUse">
      <stop offset="0" stop-color="#7da7d9"/>
      <stop offset=".07" stop-color="#35517d"/>
      <stop offset=".5" stop-color="#dee6f5"/>
      <stop offset=".62" stop-color="#bacdea"/>
      <stop offset=".67" stop-color="#b6cae8"/>
      <stop offset=".71" stop-color="#aac3e5"/>
      <stop offset=".76" stop-color="#96b6df"/>
      <stop offset=".81" stop-color="#7aa5d8"/>
      <stop offset=".81" stop-color="#7aa5d8"/>
      <stop offset="1" stop-color="#174d6b"/>
    </linearGradient>
  </defs>
  <path class="st0" d="M83.9,70.31c3.93-.44,8.96-2.66,12.28-4.83,1.45.07-1.56,1.61-1.67,1.67-4.75,2.66-8.63,3.48-13.95,4.27-.92.14-1.96-.11-2.93.04-5,.77-9.66,4.53-14.56,5.9-.97.02-.88-.05-.08-.45,1.71-.86,3.46-1.78,4.74-3.25l-13.01,1.11,16.12-5.25c1.31-.66,2.63-1.28,3.86-2.09,1.7-1.13,3.08-3.03,4.94-3.43l-.74-.93,1.11-.56-4.09-1.86,2.23-1.11c-2,.06-3.6-1.43-5.2-2.42l3.71-.55-8.18-2.04-.37-.56c1.05-.04,2.11.04,3.16,0,.45-.02,1.38.28,1.3-.37-2.57-.56-6.23-1.24-8.51-2.46-.87-.46-8.52-7.03-7.85-7.58,7.31,1.53,14.99,3.56,21.82,6.62,2.06.92,5.51,2.55,7.16,3.99,1.88,1.64,2.74,4.74,5.6,4.99l-3.29-3.62c-.1-.32-.06-.61.01-.93.4-1.59,5.16-6.64,6.42-8.49,2.34-3.45,4.37-7.46,5.42-11.5,3.78,3.93,3.7,9.97.89,14.46-.94,1.5-8.3,8.7-7.21,10.07,1.89-.97,3.54-2,5.77-1.89,2.57.13,3.6,2.5,6.5,2.07-.65.48-2.45,1.13-3.17,1.15-.92.03-.71-.9-1.46-.99-3.84-.45-7.46,1.6-11,.22-1.84-.72-3.27-3.4-4.62-4.67-2.61-2.45-7.89-4.29-11.36-5.18,4.67,3.79,4.49,11.84,10.78,13.56-4.54,2.59-8.97,5.61-14.13,6.88.12,1.03,1.8,0,2.04,0,3.52,0,8.17.38,11.53,0Z"/>
</svg>