<?xml version="1.0" encoding="UTF-8"?>
<svg id="Layer_1" xmlns="http://www.w3.org/2000/svg" version="1.1" xmlns:xlink="http://www.w3.org/1999/xlink" viewBox="0 0 16 16">
  <!-- Generator: Adobe Illustrator 30.0.0, SVG Export Plug-In . SVG Version: 2.1.1 Build 123)  -->
  <defs>
    <style>
      .st0 {
        fill: url(#linear-gradient);
        stroke: url(#linear-gradient1);
        stroke-miterlimit: 10;
        stroke-width: .1px;
      }
    </style>
    <linearGradient id="linear-gradient" x1=".66" y1="8" x2="15.34" y2="8" gradientUnits="userSpaceOnUse">
      <stop offset="0" stop-color="#7da7d9"/>
      <stop offset=".07" stop-color="#35517d"/>
      <stop offset=".5" stop-color="#dee6f5"/>
      <stop offset=".62" stop-color="#bacdea"/>
      <stop offset=".67" stop-color="#b6cae8"/>
      <stop offset=".71" stop-color="#aac3e5"/>
      <stop offset=".76" stop-color="#96b6df"/>
      <stop offset=".81" stop-color="#7aa5d8"/>
      <stop offset=".81" stop-color="#7aa5d8"/>
      <stop offset="1" stop-color="#174d6b"/>
    </linearGradient>
    <linearGradient id="linear-gradient1" x1=".24" y1="7.98" x2="15.53" y2="7.98" xlink:href="#linear-gradient"/>
  </defs>
  <path class="st0" d="M9.13,12.15c1.14-.13,2.6-.77,3.56-1.4.42.02-.45.47-.49.49-1.38.77-2.5,1.01-4.05,1.24-.27.04-.57-.03-.85.01-1.45.22-2.8,1.32-4.22,1.71-.28,0-.25-.01-.02-.13.5-.25,1-.52,1.38-.94l-3.78.32,4.68-1.52c.38-.19.76-.37,1.12-.61.49-.33.89-.88,1.43-1l-.21-.27.32-.16-1.19-.54.65-.32c-.58.02-1.04-.41-1.51-.7l1.08-.16-2.37-.59-.11-.16c.3-.01.61.01.92,0,.13,0,.4.08.38-.11-.74-.16-1.81-.36-2.47-.71-.25-.13-2.47-2.04-2.28-2.2,2.12.45,4.35,1.03,6.33,1.92.6.27,1.6.74,2.08,1.16.55.48.79,1.37,1.63,1.45l-.96-1.05c-.03-.09-.02-.18,0-.27.12-.46,1.5-1.93,1.86-2.46.68-1,1.27-2.16,1.57-3.34,1.1,1.14,1.07,2.89.26,4.2-.27.43-2.41,2.52-2.09,2.92.55-.28,1.03-.58,1.67-.55.74.04,1.04.72,1.88.6-.19.14-.71.33-.92.33-.27,0-.21-.26-.42-.29-1.11-.13-2.17.46-3.19.06-.54-.21-.95-.99-1.34-1.35-.76-.71-2.29-1.25-3.3-1.5,1.35,1.1,1.3,3.43,3.13,3.93-1.32.75-2.6,1.63-4.1,2,.03.3.52,0,.59,0,1.02,0,2.37.11,3.34,0Z"/>
</svg>