<?xml version="1.0" encoding="UTF-8"?>
<svg id="Layer_1" xmlns="http://www.w3.org/2000/svg" version="1.1" xmlns:xlink="http://www.w3.org/1999/xlink" viewBox="0 0 160 160">
  <!-- Generator: Adobe Illustrator 30.0.0, SVG Export Plug-In . SVG Version: 2.1.1 Build 123)  -->
  <defs>
    <style>
      .st0 {
        fill: url(#linear-gradient);
        stroke: url(#linear-gradient1);
        stroke-miterlimit: 10;
        stroke-width: .1px;
      }
    </style>
    <linearGradient id="linear-gradient" x1="241.28" y1="-76" x2="370.72" y2="-76" gradientTransform="translate(-226 4) scale(1 -1)" gradientUnits="userSpaceOnUse">
      <stop offset="0" stop-color="#7da7d9"/>
      <stop offset=".07" stop-color="#35517d"/>
      <stop offset=".5" stop-color="#dee6f5"/>
      <stop offset=".62" stop-color="#bacdea"/>
      <stop offset=".67" stop-color="#b6cae8"/>
      <stop offset=".71" stop-color="#aac3e5"/>
      <stop offset=".76" stop-color="#96b6df"/>
      <stop offset=".81" stop-color="#7aa5d8"/>
      <stop offset=".81" stop-color="#7aa5d8"/>
      <stop offset="1" stop-color="#174d6b"/>
    </linearGradient>
    <linearGradient id="linear-gradient1" x1="240.85" y1="-75.98" x2="370.91" y2="-75.98" xlink:href="#linear-gradient"/>
  </defs>
  <path class="st0" d="M89.96,116.64c10.06-1.13,22.93-6.81,31.43-12.36,3.71.18-3.99,4.12-4.27,4.27-12.16,6.81-22.09,8.91-35.7,10.93-2.35.36-5.02-.28-7.5.1-12.8,1.97-24.72,11.59-37.26,15.1-2.48.05-2.25-.13-.2-1.15,4.38-2.2,8.85-4.56,12.13-8.32l-33.29,2.84,41.25-13.44c3.35-1.69,6.73-3.28,9.88-5.35,4.35-2.89,7.88-7.75,12.64-8.78l-1.89-2.38,2.84-1.43-10.47-4.76,5.71-2.84c-5.12.15-9.21-3.66-13.31-6.19l9.49-1.41-20.93-5.22-.95-1.43c2.69-.1,5.4.1,8.09,0,1.15-.05,3.53.72,3.33-.95-6.58-1.43-15.94-3.17-21.78-6.3-2.23-1.18-21.8-17.99-20.09-19.4,18.71,3.92,38.36,9.11,55.84,16.94,5.27,2.35,14.1,6.53,18.32,10.21,4.81,4.2,7.01,12.13,14.33,12.77l-8.42-9.26c-.26-.82-.15-1.56.03-2.38,1.02-4.07,13.21-16.99,16.43-21.73,5.99-8.83,11.18-19.09,13.87-29.43,9.67,10.06,9.47,25.51,2.28,37.01-2.41,3.84-21.24,22.26-18.45,25.77,4.84-2.48,9.06-5.12,14.77-4.84,6.58.33,9.21,6.4,16.63,5.3-1.66,1.23-6.27,2.89-8.11,2.94-2.35.08-1.82-2.3-3.74-2.53-9.83-1.15-19.09,4.09-28.15.56-4.71-1.84-8.37-8.7-11.82-11.95-6.68-6.27-20.19-10.98-29.07-13.26,11.95,9.7,11.49,30.3,27.59,34.7-11.62,6.63-22.96,14.36-36.16,17.61.31,2.64,4.61,0,5.22,0,9.01,0,20.91.97,29.51,0l-.03.03Z"/>
</svg>